Coordinates
version=1
nRows=9
nColumns=63
inDegrees=yes

Units are S.I. units (second, meters, Newtons, ...)
If the header above contains a line with 'inDegrees', this indicates whether rotational values are in degrees (yes) or radians (no).

endheader
time	pelvis_tilt	pelvis_list	pelvis_rotation	pelvis_tx	pelvis_ty	pelvis_tz	hip_flexion_r	hip_adduction_r	hip_rotation_r	knee_angle_r	knee_angle_r_beta	ankle_angle_r	subtalar_angle_r	mtp_angle_r	hip_flexion_l	hip_adduction_l	hip_rotation_l	knee_angle_l	knee_angle_l_beta	ankle_angle_l	subtalar_angle_l	mtp_angle_l	L5_S1_Flex_Ext	L5_S1_Lat_Bending	L5_S1_axial_rotation	L4_L5_Flex_Ext	L4_L5_Lat_Bending	L4_L5_axial_rotation	L3_L4_Flex_Ext	L3_L4_Lat_Bending	L3_L4_axial_rotation	L2_L3_Flex_Ext	L2_L3_Lat_Bending	L2_L3_axial_rotation	L1_L2_Flex_Ext	L1_L2_Lat_Bending	L1_L2_axial_rotation	L1_T12_Flex_Ext	L1_T12_Lat_Bending	L1_T12_axial_rotation	Abs_r3	Abs_r2	Abs_r1	Abs_t1	Abs_t2	neck_flexion	neck_bending	neck_rotation	arm_flex_r	arm_add_r	arm_rot_r	elbow_flex_r	pro_sup_r	wrist_flex_r	wrist_dev_r	arm_flex_l	arm_add_l	arm_rot_l	elbow_flex_l	pro_sup_l	wrist_flex_l	wrist_dev_l
1.271186	-2.296566	-29.870924	90.934534	0.096112	0.585310	0.878036	37.897333	-5.158408	-9.236628	19.939793	0.348015	37.276913	18.939145	0.000000	31.542359	3.156649	-15.309048	10.433983	0.182107	28.201721	15.505243	0.000000	-0.052436	-0.197346	0.529147	-0.097379	-0.262470	0.562219	-0.086147	-0.479826	0.562219	-0.059929	-0.479826	0.463004	-0.048692	-0.402427	0.429932	-0.029962	-0.305688	0.396860	-0.374544	-2.232413	2.942957	0.000000	0.000000	22.322169	-1.082326	-7.307036	-0.181133	-36.011079	5.419896	118.045046	89.587938	11.900277	28.692287	0.901920	-41.327670	1.387657	116.972948	89.229590	-1.330627	-3.180104
1.288136	-2.400671	-30.779016	90.724955	0.095459	0.583089	0.881928	39.510987	-5.414936	-9.117789	20.755635	0.362254	37.231303	18.850132	0.000000	32.889021	3.228635	-15.495780	10.703899	0.186818	28.362972	15.362295	0.000000	-0.067884	-0.160257	0.425029	-0.126067	-0.213142	0.451593	-0.111526	-0.389650	0.451593	-0.077584	-0.389650	0.371900	-0.063037	-0.326797	0.345336	-0.038789	-0.248239	0.318771	-0.484887	-1.812864	2.363881	0.000000	0.000000	22.270832	-0.885247	-6.399030	0.037679	-36.275201	4.969806	118.955531	89.434365	8.934917	28.153076	3.328653	-44.063843	0.717266	117.743358	89.154941	-0.722047	-4.171659
1.305085	-2.276810	-31.627340	90.832799	0.094218	0.580974	0.885710	40.960214	-5.624605	-9.276653	21.495759	0.375172	37.166482	18.750947	0.000000	34.215440	3.249022	-15.317962	10.999646	0.191980	28.560124	15.115530	0.000000	-0.082784	-0.094276	0.228302	-0.153737	-0.125387	0.242571	-0.136005	-0.229222	0.242571	-0.094613	-0.229222	0.199765	-0.076873	-0.192247	0.185496	-0.047303	-0.146033	0.171227	-0.591315	-1.066467	1.269750	0.000000	0.000000	22.233807	-0.596406	-5.004196	0.458380	-36.588467	5.065168	119.727218	89.339514	5.737045	27.413472	5.629946	-46.862118	-0.370143	118.469198	89.194761	0.307152	-5.030148
1.322034	-1.934753	-32.419467	91.219724	0.092467	0.578886	0.889392	42.270824	-5.788490	-9.745697	22.178215	0.387083	37.144001	18.750580	0.000000	35.537574	3.204509	-14.842711	11.356542	0.198209	28.832358	14.809316	0.000000	-0.096318	-0.001741	-0.034144	-0.178872	-0.002315	-0.036278	-0.158240	-0.004233	-0.036278	-0.110082	-0.004233	-0.029876	-0.089441	-0.003550	-0.027742	-0.055036	-0.002697	-0.025608	-0.687988	-0.019693	-0.189898	0.000000	0.000000	22.239428	-0.287594	-3.248801	0.899062	-36.888016	5.385626	120.413531	89.259730	2.766963	26.675353	8.075981	-49.657550	-1.515958	119.065061	89.319283	1.713449	-5.682086
1.338983	-1.400062	-33.152740	91.815697	0.090362	0.576769	0.892971	43.466842	-5.897445	-10.408819	22.817450	0.398240	37.192794	18.797397	0.000000	36.850493	3.090425	-14.138699	11.787515	0.205731	29.201427	14.453813	0.000000	-0.109452	0.113139	-0.334904	-0.203263	0.150474	-0.355835	-0.179818	0.275085	-0.355835	-0.125092	0.275085	-0.293041	-0.101637	0.230712	-0.272109	-0.062541	0.175252	-0.251178	-0.781803	1.279847	-1.862633	0.000000	0.000000	22.287633	-0.013044	-1.240329	1.258582	-37.110448	5.716930	121.041425	89.191396	0.321856	26.101389	10.850721	-52.408957	-2.414892	119.470742	89.492361	3.301933	-6.028372
1.355932	-0.693773	-33.830096	92.569311	0.088017	0.574564	0.896454	44.574299	-5.939849	-11.197585	23.424959	0.408843	37.323856	18.855677	0.000000	38.170237	2.898319	-13.256653	12.326134	0.215132	29.686890	14.069069	0.000000	-0.122234	0.246542	-0.651957	-0.227000	0.327902	-0.692705	-0.200818	0.599443	-0.692705	-0.139701	0.599443	-0.570463	-0.113506	0.502749	-0.529715	-0.069844	0.381894	-0.488968	-0.873104	2.788938	-3.625990	0.000000	0.000000	22.335222	0.185698	0.914166	1.493133	-37.226607	5.923445	121.635186	89.131834	-1.421920	25.831010	14.108701	-55.055285	-2.778396	119.625899	89.522709	4.835840	-5.992231
1.372881	0.155582	-34.450123	93.416899	0.085562	0.572246	0.899829	45.611786	-5.912724	-12.057457	24.011945	0.419088	37.543319	18.926399	0.000000	39.499407	2.628423	-12.248734	12.988269	0.226688	30.286471	13.663181	0.000000	-0.136187	0.393546	-0.963881	-0.252914	0.523416	-1.024124	-0.223742	0.956868	-1.024124	-0.155649	0.956868	-0.843396	-0.126464	0.802519	-0.783154	-0.077817	0.609603	-0.722911	-0.972773	4.451873	-5.360819	0.000000	0.000000	22.329047	0.293095	3.104783	1.589501	-37.233883	5.939497	122.197907	89.075022	-2.476685	25.853520	17.939199	-57.521019	-2.418264	119.478950	89.158949	6.192732	-5.548796
1.389831	1.128447	-35.008844	94.357108	0.083047	0.569801	0.903125	46.587782	-5.820995	-12.988400	24.591362	0.429200	37.847179	18.997332	0.000000	40.853386	2.275992	-11.131496	13.808912	0.241011	30.999122	13.275807	0.000000	-0.153602	0.550003	-1.272833	-0.285255	0.731505	-1.352385	-0.252353	1.337278	-1.352385	-0.175552	1.337278	-1.113729	-0.142635	1.121567	-1.034177	-0.087768	0.851955	-0.954625	-1.097165	6.221749	-7.079116	0.000000	0.000000	22.232275	0.333869	5.272274	1.613307	-37.154961	5.825630	122.725391	89.015364	-2.963746	26.144353	22.378648	-59.690935	-1.237165	118.984737	88.306953	7.408979	-4.843515
1.406780	2.183130	-35.536908	95.284556	0.080627	0.567184	0.906314	47.557547	-5.663647	-13.894165	25.178610	0.439450	38.216458	19.066288	0.000000	42.262926	1.858739	-9.990534	14.790989	0.258151	31.795243	12.882713	0.000000	-0.171858	0.710153	-1.556834	-0.319158	0.944504	-1.654136	-0.282346	1.726667	-1.654136	-0.196417	1.726667	-1.362230	-0.159588	1.448145	-1.264928	-0.098200	1.100028	-1.167626	-1.227568	8.033396	-8.658644	0.000000	0.000000	21.977259	0.312983	7.343800	1.594793	-36.992921	5.566568	123.211552	88.951099	-2.784343	26.706847	27.234419	-61.537123	0.603715	118.198677	86.847913	8.417338	-3.758463
